<svg width="98" height="98" viewBox="0 0 98 98" fill="none" xmlns="http://www.w3.org/2000/svg">
<path fill-rule="evenodd" clip-rule="evenodd" d="M68 8C73.8348 8 79.4305 10.3179 83.5564 14.4437C87.6822 18.5695 90 24.1652 90 30V68C90 73.8348 87.6822 79.4305 83.5564 83.5564C79.4305 87.6822 73.8348 90 68 90H30C24.1652 90 18.5695 87.6822 14.4437 83.5564C10.3179 79.4305 8 73.8348 8 68V30C8 24.1652 10.3179 18.5695 14.4437 14.4437C18.5695 10.3179 24.1652 8 30 8H68ZM68 0H30C22.0508 0.0237408 14.434 3.19207 8.81302 8.81302C3.19207 14.434 0.0237408 22.0508 0 30V68C0.0237408 75.9492 3.19207 83.566 8.81302 89.187C14.434 94.8079 22.0508 97.9763 30 98H68C75.9492 97.9763 83.566 94.8079 89.187 89.187C94.8079 83.566 97.9763 75.9492 98 68V30C97.9763 22.0508 94.8079 14.434 89.187 8.81302C83.566 3.19207 75.9492 0.0237408 68 0ZM75.14 17C74.0067 17 72.8989 17.3361 71.9566 17.9657C71.0143 18.5953 70.2799 19.4902 69.8462 20.5372C69.4125 21.5842 69.299 22.7364 69.5201 23.8479C69.7412 24.9594 70.287 25.9804 71.0883 26.7817C71.8897 27.5831 72.9107 28.1288 74.0222 28.3499C75.1337 28.571 76.2858 28.4575 77.3328 28.0238C78.3798 27.5901 79.2747 26.8557 79.9044 25.9134C80.534 24.9711 80.87 23.8633 80.87 22.73C80.87 21.9775 80.7218 21.2324 80.4339 20.5372C80.1459 19.842 79.7238 19.2104 79.1918 18.6783C78.6597 18.1462 78.028 17.7241 77.3328 17.4362C76.6376 17.1482 75.8925 17 75.14 17ZM59.0963 34.4455C56.1873 32.5035 52.7676 31.468 49.27 31.47C44.5861 31.4779 40.0963 33.3421 36.7842 36.6542C33.4722 39.9662 31.608 44.4561 31.6 49.14C31.598 52.6376 32.6335 56.0573 34.5755 58.9662C36.5174 61.8752 39.2786 64.1429 42.5096 65.4823C45.7406 66.8217 49.2962 67.1726 52.7268 66.4908C56.1573 65.8089 59.3085 64.1248 61.7817 61.6516C64.2549 59.1785 65.9389 56.0273 66.6208 52.5967C67.3027 49.1662 66.9517 45.6105 65.6123 42.3795C64.2729 39.1485 62.0053 36.3874 59.0963 34.4455ZM35.0156 27.8228C39.2323 24.9946 44.1927 23.4799 49.27 23.47C52.6457 23.4634 55.9896 24.1225 59.1104 25.4095C62.2311 26.6964 65.0675 28.5861 67.4573 30.9703C69.8471 33.3545 71.7433 36.1865 73.0376 39.3042C74.3319 42.422 74.9987 45.7643 75 49.14C75.002 54.2173 73.4988 59.1813 70.6805 63.4046C67.8621 67.6278 63.8551 70.9209 59.1658 72.8675C54.4765 74.8142 49.3153 75.3271 44.3346 74.3414C39.3539 73.3557 34.7771 70.9156 31.1827 67.3296C27.5883 63.7436 25.1376 59.1726 24.1403 54.1942C23.143 49.2158 23.6438 44.0535 25.5795 39.3596C27.5152 34.6657 30.7989 30.651 35.0156 27.8228Z" fill="white"/>
</svg>
