<svg width="101" height="100" viewBox="0 0 101 100" fill="none" xmlns="http://www.w3.org/2000/svg">
<path fill-rule="evenodd" clip-rule="evenodd" d="M93.087 6.91298C92.8226 6.64856 92.464 6.50001 92.09 6.50001H7.91C7.53605 6.50001 7.17741 6.64856 6.91298 6.91298C6.64855 7.17741 6.5 7.53605 6.5 7.91001V92.1C6.5 92.474 6.64855 92.8326 6.91298 93.097C7.17741 93.3615 7.53605 93.51 7.91 93.51H92.09C92.464 93.51 92.8226 93.3615 93.087 93.097C93.3514 92.8326 93.5 92.474 93.5 92.1V7.91001C93.5 7.53605 93.3514 7.17741 93.087 6.91298ZM7.91 6.32056e-06H92.09C93.1296 -0.00130784 94.1593 0.20232 95.1201 0.599247C96.0809 0.996173 96.9541 1.57861 97.6897 2.31325C98.4253 3.0479 99.0088 3.92033 99.4069 4.88067C99.8051 5.84101 100.01 6.87041 100.01 7.91001V92.09C100.01 94.1879 99.1766 96.1998 97.6932 97.6832C96.2098 99.1666 94.1979 100 92.1 100H7.91C5.81387 100 3.80344 99.168 2.32032 97.6868C0.837193 96.2055 0.00265026 94.1961 0 92.1V7.91001C0 5.81214 0.833373 3.8002 2.31679 2.31679C3.8002 0.833379 5.81214 6.32056e-06 7.91 6.32056e-06ZM23.27 36.4H35V78.13H23.27V36.4ZM63.23 36.4C53.18 36.4 53 42.21 53 42.61V36.4H41V78.13H53V54.31C53 52.45 53.55 48.45 59.23 48.45C64.91 48.45 64.86 54.18 64.86 54.18V78.18H76.73V52.18C76.73 39.85 70 36.4 63.23 36.4ZM34.99 27.73C34.99 30.9664 32.3664 33.59 29.13 33.59C25.8936 33.59 23.27 30.9664 23.27 27.73C23.27 24.4936 25.8936 21.87 29.13 21.87C32.3664 21.87 34.99 24.4936 34.99 27.73Z" fill="white"/>
</svg>
